HIERARCHY
ROOT hip
{
  OFFSET -17.3934 69.203 244.994
  CHANNELS 6 Xposition Yposition Zposition Zrotation Xrotation Yrotation
  JOINT abdomen
  {
    OFFSET 0 20.6881 -0.73152
    CHANNELS 3 Zrotation Xrotation Yrotation
    JOINT chest
    {
      OFFSET 0 11.7043 -0.48768
      CHANNELS 3 Zrotation Xrotation Yrotation
      JOINT neck
      {
        OFFSET 0 22.1894 -2.19456
        CHANNELS 3 Zrotation Xrotation Yrotation
        JOINT head
        {
          OFFSET -0.24384 7.07133 1.2192
          CHANNELS 3 Zrotation Xrotation Yrotation
          JOINT leftEye
          {
            OFFSET 4.14528 8.04674 8.04672
            CHANNELS 3 Zrotation Xrotation Yrotation
            End Site
            {
              OFFSET 1 0 0
            }
          }
          JOINT rightEye
          {
            OFFSET -3.6576 8.04674 8.04672
            CHANNELS 3 Zrotation Xrotation Yrotation
            End Site
            {
              OFFSET 1 0 0
            }
          }
        }
      }
      JOINT rCollar
      {
        OFFSET -2.68224 19.2634 -4.8768
        CHANNELS 3 Zrotation Xrotation Yrotation
        JOINT rShldr
        {
          OFFSET -8.77824 -1.95073 1.46304
          CHANNELS 3 Zrotation Xrotation Yrotation
          JOINT rForeArm
          {
            OFFSET -28.1742 -1.7115 0.48768
            CHANNELS 3 Zrotation Xrotation Yrotation
            JOINT rHand
            {
              OFFSET -22.5879 0.773209 7.07136
              CHANNELS 3 Zrotation Xrotation Yrotation
              JOINT rThumb1
              {
                OFFSET -1.2192 -0.487915 3.41376
                CHANNELS 3 Zrotation Xrotation Yrotation
                JOINT rThumb2
                {
                  OFFSET -3.37035 -0.52449 3.41376
                  CHANNELS 3 Zrotation Xrotation Yrotation
                  End Site
                  {
                    OFFSET -1.78271 -1.18214 1.43049
                  }
                }
              }
              JOINT rIndex1
              {
                OFFSET -7.75947 0.938293 5.60832
                CHANNELS 3 Zrotation Xrotation Yrotation
                JOINT rIndex2
                {
                  OFFSET -2.54057 -0.884171 1.56538
                  CHANNELS 3 Zrotation Xrotation Yrotation
                  End Site
                  {
                    OFFSET -1.62519 -0.234802 1.16502
                  }
                }
              }
              JOINT rMid1
              {
                OFFSET -8.24714 1.18213 3.41376
                CHANNELS 3 Zrotation Xrotation Yrotation
                JOINT rMid2
                {
                  OFFSET -3.10165 -0.590103 1.0647
                  CHANNELS 3 Zrotation Xrotation Yrotation
                  End Site
                  {
                    OFFSET -2.48547 -0.328903 0.83742
                  }
                }
              }
              JOINT rRing1
              {
                OFFSET -8.82822 0.546677 1.51678
                CHANNELS 3 Zrotation Xrotation Yrotation
                JOINT rRing2
                {
                  OFFSET -2.60934 -0.819778 -0.0198488
                  CHANNELS 3 Zrotation Xrotation Yrotation
                  End Site
                  {
                    OFFSET -2.33842 -0.294052 0.168128
                  }
                }
              }
              JOINT rPinky1
              {
                OFFSET -8.27202 -0.0477905 -0.4584
                CHANNELS 3 Zrotation Xrotation Yrotation
                JOINT rPinky2
                {
                  OFFSET -1.82734 -0.647385 -0.700984
                  CHANNELS 3 Zrotation Xrotation Yrotation
                  End Site
                  {
                    OFFSET -1.69225 -0.51767 -0.607171
                  }
                }
              }
            }
          }
        }
      }
      JOINT lCollar
      {
        OFFSET 2.68224 19.2634 -4.8768
        CHANNELS 3 Zrotation Xrotation Yrotation
        JOINT lShldr
        {
          OFFSET 8.77824 -1.95073 1.46304
          CHANNELS 3 Zrotation Xrotation Yrotation
          JOINT lForeArm
          {
            OFFSET 28.1742 -1.7115 0.48768
            CHANNELS 3 Zrotation Xrotation Yrotation
            JOINT lHand
            {
              OFFSET 22.5879 0.773209 7.07136
              CHANNELS 3 Zrotation Xrotation Yrotation
              JOINT lThumb1
              {
                OFFSET 1.2192 -0.487915 3.41376
                CHANNELS 3 Zrotation Xrotation Yrotation
                JOINT lThumb2
                {
                  OFFSET 3.37035 -0.52449 3.41376
                  CHANNELS 3 Zrotation Xrotation Yrotation
                  End Site
                  {
                    OFFSET 1.78271 -1.18214 1.43049
                  }
                }
              }
              JOINT lIndex1
              {
                OFFSET 7.75947 0.938293 5.60832
                CHANNELS 3 Zrotation Xrotation Yrotation
                JOINT lIndex2
                {
                  OFFSET 2.54057 -0.884171 1.56538
                  CHANNELS 3 Zrotation Xrotation Yrotation
                  End Site
                  {
                    OFFSET 1.62519 -0.234802 1.16502
                  }
                }
              }
              JOINT lMid1
              {
                OFFSET 8.24714 1.18213 3.41376
                CHANNELS 3 Zrotation Xrotation Yrotation
                JOINT lMid2
                {
                  OFFSET 3.10165 -0.590103 1.0647
                  CHANNELS 3 Zrotation Xrotation Yrotation
                  End Site
                  {
                    OFFSET 2.48547 -0.328903 0.83742
                  }
                }
              }
              JOINT lRing1
              {
                OFFSET 8.82822 0.546677 1.51678
                CHANNELS 3 Zrotation Xrotation Yrotation
                JOINT lRing2
                {
                  OFFSET 2.60934 -0.819778 -0.0198488
                  CHANNELS 3 Zrotation Xrotation Yrotation
                  End Site
                  {
                    OFFSET 2.33842 -0.294052 0.168128
                  }
                }
              }
              JOINT lPinky1
              {
                OFFSET 8.27202 -0.0477905 -0.4584
                CHANNELS 3 Zrotation Xrotation Yrotation
                JOINT lPinky2
                {
                  OFFSET 1.82734 -0.647385 -0.700984
                  CHANNELS 3 Zrotation Xrotation Yrotation
                  End Site
                  {
                    OFFSET 1.69225 -0.51767 -0.607171
                  }
                }
              }
            }
          }
        }
      }
    }
  }
  JOINT rButtock
  {
    OFFSET -8.77824 4.35084 1.2192
    CHANNELS 3 Zrotation Xrotation Yrotation
    JOINT rThigh
    {
      OFFSET 0 -1.70687 -2.19456
      CHANNELS 3 Zrotation Xrotation Yrotation
      JOINT rShin
      {
        OFFSET 0 -36.8199 0.73152
        CHANNELS 3 Zrotation Xrotation Yrotation
        JOINT rFoot
        {
          OFFSET 0.73152 -45.1104 -5.12064
          CHANNELS 3 Zrotation Xrotation Yrotation
          End Site
          {
            OFFSET -1.1221 -3.69964 12.103
          }
        }
      }
    }
  }
  JOINT lButtock
  {
    OFFSET 8.77824 4.35084 1.2192
    CHANNELS 3 Zrotation Xrotation Yrotation
    JOINT lThigh
    {
      OFFSET 0 -1.70687 -2.19456
      CHANNELS 3 Zrotation Xrotation Yrotation
      JOINT lShin
      {
        OFFSET 0 -36.8199 0.73152
        CHANNELS 3 Zrotation Xrotation Yrotation
        JOINT lFoot
        {
          OFFSET -0.73152 -45.1104 -5.12064
          CHANNELS 3 Zrotation Xrotation Yrotation
          End Site
          {
            OFFSET 1.1221 -3.69964 12.103
          }
        }
      }
    }
  }
}
MOTION
Frames:	8
Frame Time:	0.00833333
-10.1288 67.0175 -22.909 -7.51389 21.4932 -6.45997 11.5688 -12.5631 9.68292 -1.51903 -2.34451 2.06868 -4.70067 1.29304 -2.60771 4.88037 -15.9211 -3.32382 -0 0 0 -0 0 0 2.24143e-014 2.59215e-013 -1.74943e-013 37.8495 70.3936 40.9535 -27.464 -28.026 64.0806 -0.809754 24.6744 3.70182 -1.9921e-009 -5.42408e-009 7.54488e-010 -3.42199e-009 -9.40469e-009 1.34033e-009 -1.9921e-009 -5.42407e-009 7.54473e-010 7.73091 5.47488 0.417314 -1.99211e-009 -5.42407e-009 7.54488e-010 2.90554 0.965183 0.102902 -1.9921e-009 -5.42407e-009 7.54487e-010 10.2786 0.731801 0.0259123 -1.99211e-009 -5.42407e-009 7.54494e-010 2.22167 -0.733487 -0.20892 2.24224e-014 2.59216e-013 -1.75167e-013 -104.177 49.5393 44.7233 28.4248 -36.6961 -78.1415 0.128948 -10.1399 1.44047 -3.28624e-011 -4.95656e-009 -2.53386e-009 -3.18642e-011 -8.51789e-009 -4.37851e-009 -3.2857e-011 -4.95654e-009 -2.53385e-009 -7.73091 5.47488 -0.417314 -3.28595e-011 -4.95655e-009 -2.53386e-009 -2.90554 0.965183 -0.102902 -3.28718e-011 -4.95655e-009 -2.53386e-009 -10.2786 0.731801 -0.0259123 -3.28599e-011 -4.95655e-009 -2.53387e-009 -2.22167 -0.733487 0.20892 -2.03217e-016 0 -3.88251e-019 16.0148 -11.7491 9.0334 -0.443747 50.5569 1.79279 -7.8145 -18.0337 -18.0422 2.03217e-016 0 3.88251e-019 81.2087 -81.8127 79.5445 1.37771 61.796 -1.05045 -0.0702843 -1.24432 -2.57384 
-10.2363 67.456 -19.8346 -7.00529 20.4078 -5.94126 10.5101 -12.495 9.70472 -1.66229 -2.01406 2.10534 -5.12139 1.49284 -3.08269 5.84313 -15.1665 -4.07359 -0 0 0 -0 0 0 1.96169e-013 -3.69838e-013 -3.72232e-014 37.2557 70.7569 42.4946 -27.5942 -28.5723 64.9544 -0.789704 24.3878 3.65315 9.56246e-010 1.81421e-009 -1.08729e-009 1.63389e-009 3.11862e-009 -1.8974e-009 9.56241e-010 1.81422e-009 -1.0873e-009 7.73091 5.47488 0.417314 9.56241e-010 1.81422e-009 -1.08729e-009 2.90554 0.965183 0.102902 9.56251e-010 1.81422e-009 -1.08729e-009 10.2786 0.731801 0.0259123 9.56244e-010 1.81422e-009 -1.08728e-009 2.22167 -0.733487 -0.20892 1.96206e-013 -3.69839e-013 -3.73684e-014 -104.443 49.7536 47.1179 28.3843 -37.4961 -79.4865 0.119264 -9.78656 1.38913 3.34322e-011 2.87109e-009 1.1772e-009 4.72968e-011 4.94466e-009 2.03832e-009 3.34369e-011 2.8711e-009 1.17721e-009 -7.73091 5.47488 -0.417314 3.34333e-011 2.8711e-009 1.1772e-009 -2.90554 0.965183 -0.102902 3.34232e-011 2.87109e-009 1.1772e-009 -10.2786 0.731801 -0.0259123 3.34359e-011 2.8711e-009 1.17719e-009 -2.22167 -0.733487 0.20892 -2.03217e-016 0 -3.88251e-019 14.703 -8.5668 8.01228 -0.4184 49.0354 1.67134 -5.33622 -13.1746 -14.8156 2.03217e-016 0 3.88251e-019 67.2924 -81.764 67.2236 1.15373 58.6032 -0.772443 -0.120371 1.11024 -4.86042 
-10.3211 67.923 -16.7661 -6.89094 19.5218 -5.41165 9.94563 -12.4491 9.82161 -1.88986 -1.7546 2.1501 -5.42144 1.64468 -3.52705 6.64888 -14.4415 -4.81665 -0 0 0 -0 0 0 2.79871e-013 -7.41068e-013 6.12754e-014 36.5847 70.9299 44.1088 -27.7036 -29.0678 65.7631 -0.784372 24.3119 3.64025 2.78577e-009 6.27635e-009 -2.13121e-009 4.77253e-009 1.0841e-008 -3.73554e-009 2.78576e-009 6.27636e-009 -2.13123e-009 7.73091 5.47488 0.417314 2.78576e-009 6.27636e-009 -2.13121e-009 2.90554 0.965183 0.102902 2.78577e-009 6.27636e-009 -2.13121e-009 10.2786 0.731801 0.0259123 2.78577e-009 6.27636e-009 -2.13121e-009 2.22167 -0.733487 -0.20892 2.79925e-013 -7.4107e-013 6.1176e-014 -104.348 50.178 48.8825 28.3186 -38.1529 -80.6713 0.113821 -9.57669 1.35872 7.47176e-011 7.37092e-009 3.34392e-009 9.77066e-011 1.26826e-008 5.78462e-009 7.47212e-011 7.37093e-009 3.34393e-009 -7.73091 5.47488 -0.417314 7.47172e-011 7.37093e-009 3.34392e-009 -2.90554 0.965183 -0.102902 7.47093e-011 7.37092e-009 3.34392e-009 -10.2786 0.731801 -0.0259123 7.47218e-011 7.37093e-009 3.34391e-009 -2.22167 -0.733487 0.20892 -2.03217e-016 0 -3.88251e-019 14.0165 -6.3018 7.02485 -0.425744 48.4756 1.59734 -3.60599 -8.69713 -12.1702 2.03217e-016 0 3.88251e-019 56.6812 -81.3295 57.809 1.03589 56.3715 -0.594165 -0.00344616 3.03543 -6.25954 
-10.4744 68.2587 -13.77 -7.34163 18.8956 -4.87956 10.0824 -12.4092 10.1151 -2.25424 -1.65618 2.21535 -5.55662 1.73233 -3.93451 7.22699 -13.662 -5.57049 -0 0 0 -0 0 0 2.16284e-013 -7.08201e-013 1.08351e-013 36.0551 70.9223 45.5858 -27.8001 -29.5304 66.5063 -0.799223 24.5272 3.67672 2.93997e-009 6.6111e-009 -1.96058e-009 5.04053e-009 1.1426e-008 -3.44346e-009 2.93996e-009 6.61111e-009 -1.9606e-009 7.73091 5.47488 0.417314 2.93996e-009 6.61111e-009 -1.96058e-009 2.90554 0.965183 0.102902 2.93997e-009 6.61111e-009 -1.96058e-009 10.2786 0.731801 0.0259123 2.93996e-009 6.61111e-009 -1.96058e-009 2.22167 -0.733487 -0.20892 2.16346e-013 -7.08202e-013 1.08253e-013 -103.959 50.8865 50.1542 28.2532 -38.663 -81.6156 0.115709 -9.64605 1.36878 9.61643e-011 6.39394e-009 3.08135e-009 1.36208e-010 1.09965e-008 5.33011e-009 9.61657e-011 6.39395e-009 3.08136e-009 -7.73091 5.47488 -0.417314 9.61629e-011 6.39393e-009 3.08135e-009 -2.90554 0.965183 -0.102902 9.61575e-011 6.39394e-009 3.08135e-009 -10.2786 0.731801 -0.0259123 9.61678e-011 6.39394e-009 3.08134e-009 -2.22167 -0.733487 0.20892 -2.03217e-016 0 -3.88251e-019 14.0632 -5.07696 6.0572 -0.45554 49.0075 1.56979 -2.4046 -4.63685 -9.85114 2.03217e-016 0 3.88251e-019 50.7004 -80.6667 52.5556 0.996517 55.285 -0.488607 0.180179 4.71018 -6.42652 
-10.7743 68.4024 -10.935 -8.20119 18.3862 -4.29095 10.707 -12.323 10.4921 -2.71929 -1.66639 2.28713 -5.58695 1.75454 -4.32284 7.67283 -12.7913 -6.34088 -0 0 0 -0 0 0 5.93451e-014 -4.36879e-013 1.33186e-013 35.7598 70.7954 46.8158 -27.8879 -29.9757 67.2051 -0.828629 24.9402 3.74719 2.15697e-009 4.55349e-009 -1.04171e-009 3.70381e-009 7.87604e-009 -1.84083e-009 2.15696e-009 4.55349e-009 -1.04172e-009 7.73091 5.47488 0.417314 2.15696e-009 4.5535e-009 -1.04171e-009 2.90554 0.965183 0.102902 2.15697e-009 4.5535e-009 -1.04171e-009 10.2786 0.731801 0.0259123 2.15696e-009 4.5535e-009 -1.0417e-009 2.22167 -0.733487 -0.20892 5.94078e-014 -4.36879e-013 1.33065e-013 -103.31 51.8996 51.0424 28.2035 -39.0837 -82.343 0.120567 -9.82973 1.39542 1.28253e-010 2.05037e-009 1.33197e-009 2.06285e-010 3.5167e-009 2.30471e-009 1.28252e-010 2.05037e-009 1.33198e-009 -7.73091 5.47488 -0.417314 1.28251e-010 2.05035e-009 1.33197e-009 -2.90554 0.965183 -0.102902 1.28249e-010 2.05036e-009 1.33197e-009 -10.2786 0.731801 -0.0259123 1.28256e-010 2.05037e-009 1.33196e-009 -2.22167 -0.733487 0.20892 -2.03217e-016 0 -3.88251e-019 14.6133 -4.60572 5.03005 -0.503766 50.3845 1.5718 -1.55586 -0.683522 -7.64826 2.03217e-016 0 3.88251e-019 47.1216 -79.8684 49.4092 0.997404 55.1049 -0.425933 0.337381 6.19697 -5.74051 
-11.1517 68.3755 -8.31486 -9.22036 17.9658 -3.65734 11.5133 -12.2656 10.8389 -3.19362 -1.62191 2.34795 -5.57196 1.74907 -4.69264 8.07002 -12.0472 -7.08631 -0 0 0 -0 0 0 -1.02621e-013 -1.31987e-013 1.41348e-013 35.2985 70.4834 48.1932 -27.9605 -30.3729 67.8317 -0.865387 25.4395 3.83317 1.1353e-009 1.84255e-009 3.75396e-011 1.95803e-009 3.19613e-009 4.3192e-011 1.13529e-009 1.84255e-009 3.75236e-011 7.73091 5.47488 0.417314 1.13529e-009 1.84255e-009 3.75345e-011 2.90554 0.965183 0.102902 1.1353e-009 1.84255e-009 3.75404e-011 10.2786 0.731801 0.0259123 1.13529e-009 1.84256e-009 3.75459e-011 2.22167 -0.733487 -0.20892 -1.02567e-013 -1.31986e-013 1.41189e-013 -102.213 53.173 51.2121 28.1626 -39.436 -82.9268 0.123574 -9.94609 1.4123 1.3649e-010 -2.4072e-009 -6.1993e-010 2.37427e-010 -4.15582e-009 -1.0709e-009 1.36486e-010 -2.4072e-009 -6.19923e-010 -7.73091 5.47488 -0.417314 1.36487e-010 -2.40722e-009 -6.1994e-010 -2.90554 0.965183 -0.102902 1.36488e-010 -2.4072e-009 -6.19932e-010 -10.2786 0.731801 -0.0259123 1.36491e-010 -2.4072e-009 -6.19938e-010 -2.22167 -0.733487 0.20892 -2.03217e-016 0 -3.88251e-019 15.4078 -4.85343 3.95923 -0.581639 52.4993 1.60718 -1.07316 2.77262 -5.9486 2.03217e-016 0 3.88251e-019 44.6275 -79.096 47.1091 1.03017 55.5971 -0.399611 0.393592 7.0768 -4.67365 
-11.48 68.2312 -5.52079 -10.1495 17.6067 -2.99057 12.1971 -12.3125 11.0421 -3.58643 -1.35947 2.38032 -5.57013 1.75359 -5.04457 8.48879 -11.6462 -7.76686 -0 0 0 -0 0 0 -1.8129e-013 1.58853e-015 1.38404e-013 34.3154 69.9077 50.0671 -28.0134 -30.6927 68.3555 -0.901189 25.9138 3.91548 5.73487e-010 2.17329e-010 6.89293e-010 9.98855e-010 3.91281e-010 1.17947e-009 5.73487e-010 2.17325e-010 6.89277e-010 7.73091 5.47488 0.417314 5.73487e-010 2.17325e-010 6.89287e-010 2.90554 0.965183 0.102902 5.73489e-010 2.17325e-010 6.89294e-010 10.2786 0.731801 0.0259123 5.73479e-010 2.1733e-010 6.89299e-010 2.22167 -0.733487 -0.20892 -1.81256e-013 1.59222e-015 1.38205e-013 -100.405 54.6547 50.2483 28.1187 -39.7344 -83.4472 0.119591 -9.81349 1.39298 8.63807e-011 -3.72617e-009 -1.49007e-009 1.59126e-010 -6.41994e-009 -2.57603e-009 8.63755e-011 -3.72618e-009 -1.49006e-009 -7.73091 5.47488 -0.417314 8.63781e-011 -3.7262e-009 -1.49008e-009 -2.90554 0.965183 -0.102902 8.63794e-011 -3.72618e-009 -1.49007e-009 -10.2786 0.731801 -0.0259123 8.63811e-011 -3.72617e-009 -1.49008e-009 -2.22167 -0.733487 0.20892 -2.03217e-016 0 -3.88251e-019 16.1872 -5.78424 2.86323 -0.705321 55.2447 1.68432 -0.846344 5.33708 -5.1487 2.03217e-016 0 3.88251e-019 42.1003 -78.468 44.5884 1.09236 56.5273 -0.408179 0.35687 6.92426 -3.70599 
-11.8014 68.0039 -2.83677 -11.1325 17.3868 -2.27368 12.969 -12.6804 11.1489 -3.92639 -0.669353 2.39232 -5.5828 1.76105 -5.39115 8.92114 -11.6432 -8.40731 -0 0 0 -0 0 0 -1.24347e-013 -1.46557e-013 1.19459e-013 32.7429 68.9729 52.5257 -28.0495 -30.9257 68.7444 -0.940722 26.4313 4.0058 6.73858e-010 1.32273e-010 7.26521e-010 1.17224e-009 2.47229e-010 1.24054e-009 6.73858e-010 1.32268e-010 7.26505e-010 7.73091 5.47488 0.417314 6.73857e-010 1.32268e-010 7.26514e-010 2.90554 0.965183 0.102902 6.73859e-010 1.32268e-010 7.26522e-010 10.2786 0.731801 0.0259123 6.73849e-010 1.32273e-010 7.26527e-010 2.22167 -0.733487 -0.20892 -1.24358e-013 -1.4655e-013 1.19207e-013 -97.603 56.2713 47.7949 28.075 -39.9774 -83.8965 0.105719 -9.29293 1.31751 -5.07685e-011 -2.95e-011 -6.56657e-010 -8.30839e-011 -4.21143e-011 -1.13555e-009 -5.07726e-011 -2.95008e-011 -6.56651e-010 -7.73091 5.47488 -0.417314 -5.07699e-011 -2.95166e-011 -6.56668e-010 -2.90554 0.965183 -0.102902 -5.077e-011 -2.94995e-011 -6.56658e-010 -10.2786 0.731801 -0.0259123 -5.07677e-011 -2.94975e-011 -6.56662e-010 -2.22167 -0.733487 0.20892 -2.03217e-016 0 -3.88251e-019 17.0697 -7.48846 1.71334 -0.899954 58.8034 1.82635 -0.719313 6.80043 -5.58687 2.03217e-016 0 3.88251e-019 40.0148 -77.9998 42.1423 1.20441 58.073 -0.465259 0.253905 5.24209 -2.91241 
